<svg xmlns="http://www.w3.org/2000/svg" viewBox="0 0 640 360" role="img" aria-labelledby="activity-sparkline-t activity-sparkline-d"><title id="activity-sparkline-t">ACTIVITY / SPARKLINE</title><desc id="activity-sparkline-d">Sparkline uses neutral trend and semantic annotation.</desc><rect width="640" height="360" rx="12" fill="#151515" stroke="#4A4A4A"/><text x="24" y="34" fill="#A3A3A3" font-family="IBM Plex Mono,monospace" font-size="10" letter-spacing="2">ACTIVITY / SPARKLINE</text><g stroke="#242424" stroke-width="1" opacity=".7"><path d="M40 54V332"/><path d="M80 54V332"/><path d="M120 54V332"/><path d="M160 54V332"/><path d="M200 54V332"/><path d="M240 54V332"/><path d="M280 54V332"/><path d="M320 54V332"/><path d="M360 54V332"/><path d="M400 54V332"/><path d="M440 54V332"/><path d="M480 54V332"/><path d="M520 54V332"/><path d="M560 54V332"/><path d="M600 54V332"/><path d="M24 60H616"/><path d="M24 100H616"/><path d="M24 140H616"/><path d="M24 180H616"/><path d="M24 220H616"/><path d="M24 260H616"/><path d="M24 300H616"/></g><path d="M58 264L104 218L146 236L192 176L238 198L286 154L334 174L382 122L430 144L480 98L526 118L582 76" fill="none" stroke="#F7F4EC" stroke-width="2"/><path d="M430 72V284" stroke="#D1132A" stroke-width="3"/><text x="58" y="316" fill="#F7F4EC" font-family="Inter Tight,Inter,Arial,sans-serif" font-size="28">+32%</text></svg>
