<svg xmlns="http://www.w3.org/2000/svg" viewBox="0 0 640 360" role="img" aria-labelledby="evidence-matrix-t evidence-matrix-d"><title id="evidence-matrix-t">EVIDENCE / MATRIX</title><desc id="evidence-matrix-d">Evidence matrix uses shape and line pattern as semantic backstops.</desc><rect width="640" height="360" rx="12" fill="#151515" stroke="#4A4A4A"/><text x="24" y="34" fill="#A3A3A3" font-family="IBM Plex Mono,monospace" font-size="10" letter-spacing="2">EVIDENCE / MATRIX</text><g stroke="#242424" stroke-width="1" opacity=".7"><path d="M40 54V332"/><path d="M80 54V332"/><path d="M120 54V332"/><path d="M160 54V332"/><path d="M200 54V332"/><path d="M240 54V332"/><path d="M280 54V332"/><path d="M320 54V332"/><path d="M360 54V332"/><path d="M400 54V332"/><path d="M440 54V332"/><path d="M480 54V332"/><path d="M520 54V332"/><path d="M560 54V332"/><path d="M600 54V332"/><path d="M24 60H616"/><path d="M24 100H616"/><path d="M24 140H616"/><path d="M24 180H616"/><path d="M24 220H616"/><path d="M24 260H616"/><path d="M24 300H616"/></g><g stroke="#4A4A4A"><path d="M150 82V292"/><path d="M250 82V292"/><path d="M350 82V292"/><path d="M450 82V292"/><path d="M550 82V292"/><path d="M74 118H586"/><path d="M74 160H586"/><path d="M74 202H586"/><path d="M74 244H586"/><path d="M74 286H586"/></g><path d="M186 139l8-8 8 8-8 8Z" fill="none" stroke="#F7F4EC" stroke-width="2"/><circle cx="294" cy="181" r="7" fill="none" stroke="#F7F4EC" stroke-width="2"/><rect x="390" y="216" width="14" height="14" fill="none" stroke="#F7F4EC" stroke-width="2"/><circle cx="394" cy="139" r="8" fill="none" stroke="#767676" stroke-dasharray="3 3"/></svg>
