<svg xmlns="http://www.w3.org/2000/svg" viewBox="0 0 640 360"><title>repository-health</title><rect width="640" height="360" rx="12" fill="#151515" stroke="#2E2E2E"/><text x="24" y="36" fill="#A3A3A3" font-family="IBM Plex Mono,monospace" font-size="10" letter-spacing="2">REPOSITORY-HEALTH</text><g font-family="Inter,Arial" font-size="13"><text x="70" y="95" fill="#F7F4EC">Images</text><rect x="180" y="82" width="350" height="14" rx="7" fill="#0B0B0B"/><rect x="180" y="82" width="304.5" height="14" rx="7" fill="#D1132A"/><text x="560" y="94" fill="#A3A3A3">87%</text><text x="70" y="134" fill="#F7F4EC">Videos</text><rect x="180" y="121" width="350" height="14" rx="7" fill="#0B0B0B"/><rect x="180" y="121" width="217" height="14" rx="7" fill="#3B82F6"/><text x="560" y="133" fill="#A3A3A3">62%</text><text x="70" y="173" fill="#F7F4EC">Documents</text><rect x="180" y="160" width="350" height="14" rx="7" fill="#0B0B0B"/><rect x="180" y="160" width="329" height="14" rx="7" fill="#14B8A6"/><text x="560" y="172" fill="#A3A3A3">94%</text><text x="70" y="212" fill="#F7F4EC">Metadata</text><rect x="180" y="199" width="350" height="14" rx="7" fill="#0B0B0B"/><rect x="180" y="199" width="273" height="14" rx="7" fill="#A3A3A3"/><text x="560" y="211" fill="#A3A3A3">78%</text><text x="70" y="251" fill="#F7F4EC">Indexes</text><rect x="180" y="238" width="350" height="14" rx="7" fill="#0B0B0B"/><rect x="180" y="238" width="231" height="14" rx="7" fill="#D1132A"/><text x="560" y="250" fill="#A3A3A3">66%</text><text x="70" y="290" fill="#F7F4EC">Backups</text><rect x="180" y="277" width="350" height="14" rx="7" fill="#0B0B0B"/><rect x="180" y="277" width="318.5" height="14" rx="7" fill="#3B82F6"/><text x="560" y="289" fill="#A3A3A3">91%</text></g></svg>